<svg xmlns="http://www.w3.org/2000/svg" xmlns:svg="http://www.w3.org/2000/svg" id="svg154" width="760" height="800" version="1.1" viewBox="0 0 201.08 211.67"><g id="sidebar-view-hover-220px"><rect id="rect2" width="58.208" height="7.408" x="15.875" y="50.271" stroke-width=".795" opacity="0"/><rect id="rect4" width="52.917" height="7.408" x="18.521" y="50.271" fill="#00000c" opacity=".1" rx="1.323" ry="1.323"/></g><rect id="rect7" width="85.99" height="198.44" x="93.927" y="7.938" fill="#333" stroke-linecap="square" stroke-width=".612" rx="0" ry="0"/><g id="sidebar-view-hover-200px" transform="matrix(.29398 0 0 .26458 -202.26 9.7896)"><rect id="rect9" width="180" height="28" x="742" y="8" stroke-width="2.718" opacity="0"/><rect id="rect11" width="162" height="28" x="751" y="8" fill="#00000c" opacity=".1" ry="5"/></g><g id="sidebar-view-active-200px" transform="matrix(.29398 0 0 .26458 -202.26 19.844)"><rect id="rect14" width="180" height="28" x="742" y="8" stroke-width="2.718" opacity="0"/><rect id="rect16" width="162" height="28" x="751" y="8" fill="#00000c" opacity=".2" ry="5"/></g><g id="sidebar-view-checked-200px" transform="matrix(.29398 0 0 .26458 -202.26 30.427)"><rect id="rect19" width="180" height="28" x="742" y="8" stroke-width="2.718" opacity="0"/><rect id="rect21" width="162" height="28" x="751" y="8" fill="#00000c" opacity=".15" ry="5"/></g><g id="sidebar-view-hover-200px-dark" transform="matrix(.29398 0 0 .26458 -120.24 9.7896)"><rect id="rect24" width="180" height="28" x="742" y="8" stroke-width="2.718" opacity="0"/><rect id="rect26" width="162" height="28" x="751" y="8" fill="#fff" opacity=".1" ry="5"/></g><g id="sidebar-view-active-200px-dark" transform="matrix(.29398 0 0 .26458 -120.24 19.844)"><rect id="rect29" width="180" height="28" x="742" y="8" stroke-width="2.718" opacity="0"/><rect id="rect31" width="162" height="28" x="751" y="8" fill="#fff" opacity=".2" ry="5"/></g><g id="sidebar-view-checked-200px-dark" transform="matrix(.29398 0 0 .26458 -120.24 30.427)"><rect id="rect34" width="180" height="28" x="742" y="8" stroke-width="2.718" opacity="0"/><rect id="rect36" width="162" height="28" x="751" y="8" fill="#fff" opacity=".15" ry="5"/></g><g id="sidebar-view-active-220px"><rect id="rect39" width="58.208" height="7.408" x="15.875" y="60.325" stroke-width=".795" opacity="0"/><rect id="rect41" width="52.917" height="7.408" x="18.521" y="60.325" fill="#00000c" opacity=".2" rx="1.323" ry="1.323"/></g><g id="sidebar-view-checked-220px"><rect id="rect44" width="58.208" height="7.408" x="15.875" y="70.908" stroke-width=".795" opacity="0"/><rect id="rect46" width="52.917" height="7.408" x="18.521" y="70.908" fill="#00000c" opacity=".15" rx="1.323" ry="1.323"/></g><g id="sidebar-view-hover-240px"><rect id="rect49" width="63.5" height="7.408" x="15.875" y="91.81" stroke-width=".83" opacity="0"/><rect id="rect51" width="58.208" height="7.408" x="18.521" y="91.81" fill="#00000c" opacity=".1" rx="1.323" ry="1.323"/></g><g id="sidebar-view-active-240px"><rect id="rect54" width="63.5" height="7.408" x="15.875" y="101.86" stroke-width=".83" opacity="0"/><rect id="rect56" width="58.208" height="7.408" x="18.521" y="101.86" fill="#00000c" opacity=".2" rx="1.323" ry="1.323"/></g><g id="sidebar-view-checked-240px"><rect id="rect59" width="63.5" height="7.408" x="15.875" y="112.45" stroke-width=".83" opacity="0"/><rect id="rect61" width="58.208" height="7.408" x="18.521" y="112.45" fill="#00000c" opacity=".15" rx="1.323" ry="1.323"/></g><g id="sidebar-view-hover-260px"><rect id="rect64" width="68.792" height="7.408" x="15.875" y="131.23" stroke-width=".864" opacity="0"/><rect id="rect66" width="63.5" height="7.408" x="18.521" y="131.23" fill="#00000c" opacity=".1" rx="1.323" ry="1.323"/></g><g id="sidebar-view-active-260px"><rect id="rect69" width="68.792" height="7.408" x="15.875" y="141.29" stroke-width=".864" opacity="0"/><rect id="rect71" width="63.5" height="7.408" x="18.521" y="141.29" fill="#00000c" opacity=".2" rx="1.323" ry="1.323"/></g><g id="sidebar-view-checked-260px"><rect id="rect74" width="68.792" height="7.408" x="15.875" y="151.87" stroke-width=".864" opacity="0"/><rect id="rect76" width="63.5" height="7.408" x="18.521" y="151.87" fill="#00000c" opacity=".15" rx="1.323" ry="1.323"/></g><g id="sidebar-view-hover-280px"><rect id="rect79" width="74.083" height="7.408" x="15.875" y="171.98" stroke-width=".897" opacity="0"/><rect id="rect81" width="68.792" height="7.408" x="18.521" y="171.98" fill="#00000c" opacity=".1" rx="1.323" ry="1.323"/></g><g id="sidebar-view-active-280px"><rect id="rect84" width="74.083" height="7.408" x="15.875" y="182.03" stroke-width=".897" opacity="0"/><rect id="rect86" width="68.792" height="7.408" x="18.521" y="182.03" fill="#00000c" opacity=".2" rx="1.323" ry="1.323"/></g><g id="sidebar-view-checked-280px"><rect id="rect89" width="74.083" height="7.408" x="15.875" y="192.62" stroke-width=".897" opacity="0"/><rect id="rect91" width="68.792" height="7.408" x="18.521" y="192.62" fill="#00000c" opacity=".15" rx="1.323" ry="1.323"/></g><g id="sidebar-view-hover-220px-dark" transform="translate(82.021)"><rect id="rect94" width="58.208" height="7.408" x="15.875" y="50.271" stroke-width=".795" opacity="0"/><rect id="rect96" width="52.917" height="7.408" x="18.521" y="50.271" fill="#fff" opacity=".1" rx="1.323" ry="1.323"/></g><g id="sidebar-view-active-220px-dark" transform="translate(82.021)"><rect id="rect99" width="58.208" height="7.408" x="15.875" y="60.325" stroke-width=".795" opacity="0"/><rect id="rect101" width="52.917" height="7.408" x="18.521" y="60.325" fill="#fff" opacity=".2" rx="1.323" ry="1.323"/></g><g id="sidebar-view-checked-220px-dark" transform="translate(82.021)"><rect id="rect104" width="58.208" height="7.408" x="15.875" y="70.908" stroke-width=".795" opacity="0"/><rect id="rect106" width="52.917" height="7.408" x="18.521" y="70.908" fill="#fff" opacity=".15" rx="1.323" ry="1.323"/></g><g id="sidebar-view-hover-240px-dark" transform="translate(82.021)"><rect id="rect109" width="63.5" height="7.408" x="15.875" y="91.81" stroke-width=".83" opacity="0"/><rect id="rect111" width="58.208" height="7.408" x="18.521" y="91.81" fill="#fff" opacity=".1" rx="1.323" ry="1.323"/></g><g id="sidebar-view-active-240px-dark" transform="translate(82.021)"><rect id="rect114" width="63.5" height="7.408" x="15.875" y="101.86" stroke-width=".83" opacity="0"/><rect id="rect116" width="58.208" height="7.408" x="18.521" y="101.86" fill="#fff" opacity=".2" rx="1.323" ry="1.323"/></g><g id="sidebar-view-checked-240px-dark" transform="translate(82.021)"><rect id="rect119" width="63.5" height="7.408" x="15.875" y="112.45" stroke-width=".83" opacity="0"/><rect id="rect121" width="58.208" height="7.408" x="18.521" y="112.45" fill="#fff" opacity=".15" rx="1.323" ry="1.323"/></g><g id="sidebar-view-hover-260px-dark" transform="translate(82.021)"><rect id="rect124" width="68.792" height="7.408" x="15.875" y="131.23" stroke-width=".864" opacity="0"/><rect id="rect126" width="63.5" height="7.408" x="18.521" y="131.23" fill="#fff" opacity=".1" rx="1.323" ry="1.323"/></g><g id="sidebar-view-active-260px-dark" transform="translate(82.021)"><rect id="rect129" width="68.792" height="7.408" x="15.875" y="141.29" stroke-width=".864" opacity="0"/><rect id="rect131" width="63.5" height="7.408" x="18.521" y="141.29" fill="#fff" opacity=".2" rx="1.323" ry="1.323"/></g><g id="sidebar-view-checked-260px-dark" transform="translate(82.021)"><rect id="rect134" width="68.792" height="7.408" x="15.875" y="151.87" stroke-width=".864" opacity="0"/><rect id="rect136" width="63.5" height="7.408" x="18.521" y="151.87" fill="#fff" opacity=".15" rx="1.323" ry="1.323"/></g><g id="sidebar-view-hover-280px-dark" transform="translate(82.021)"><rect id="rect139" width="74.083" height="7.408" x="15.875" y="171.98" stroke-width=".897" opacity="0"/><rect id="rect141" width="68.792" height="7.408" x="18.521" y="171.98" fill="#fff" opacity=".1" rx="1.323" ry="1.323"/></g><g id="sidebar-view-active-280px-dark" transform="translate(82.021)"><rect id="rect144" width="74.083" height="7.408" x="15.875" y="182.03" stroke-width=".897" opacity="0"/><rect id="rect146" width="68.792" height="7.408" x="18.521" y="182.03" fill="#fff" opacity=".2" rx="1.323" ry="1.323"/></g><g id="sidebar-view-checked-280px-dark" transform="translate(82.021)"><rect id="rect149" width="74.083" height="7.408" x="15.875" y="192.62" stroke-width=".897" opacity="0"/><rect id="rect151" width="68.792" height="7.408" x="18.521" y="192.62" fill="#fff" opacity=".15" rx="1.323" ry="1.323"/></g><g id="sidebar-view-hover-180px"><rect id="rect160" width="47.626" height="7.408" x="15.873" y="-40.746" stroke-width=".719" opacity="0"/><rect id="rect162" width="42.334" height="7.408" x="18.518" y="-40.746" fill="#00000c" opacity=".1" rx="1.323" ry="1.323" style="stroke-width:.262946"/></g><g id="sidebar-view-active-180px"><rect id="rect166" width="47.626" height="7.408" x="15.873" y="-30.692" stroke-width=".719" opacity="0"/><rect id="rect168" width="42.334" height="7.408" x="18.519" y="-30.692" fill="#00000c" opacity=".2" rx="1.323" ry="1.323" style="stroke-width:.262946"/></g><g id="sidebar-view-checked-180px"><rect id="rect172" width="47.626" height="7.408" x="15.873" y="-20.109" stroke-width=".719" opacity="0"/><rect id="rect174" width="42.334" height="7.408" x="18.519" y="-20.109" fill="#00000c" opacity=".15" rx="1.323" ry="1.323" style="stroke-width:.262946"/></g><g id="sidebar-view-hover-180px-dark" transform="translate(84.66684)"><rect id="rect297" width="47.626" height="7.408" x="15.873" y="-40.746" stroke-width=".719" opacity="0"/><rect id="rect299" width="42.334" height="7.408" x="18.518" y="-40.746" fill="#00000c" opacity=".1" rx="1.323" ry="1.323" style="stroke-width:.262946;fill:#fff"/></g><g id="sidebar-view-active-180px-dark" transform="translate(84.66684)"><rect id="rect303" width="47.626" height="7.408" x="15.873" y="-30.692" stroke-width=".719" opacity="0"/><rect id="rect305" width="42.334" height="7.408" x="18.519" y="-30.692" fill="#00000c" opacity=".2" rx="1.323" ry="1.323" style="stroke-width:.262946;fill:#fff"/></g><g id="sidebar-view-checked-180px-dark" transform="translate(84.66684)"><rect id="rect309" width="47.626" height="7.408" x="15.873" y="-20.109" stroke-width=".719" opacity="0"/><rect id="rect311" width="42.334" height="7.408" x="18.519" y="-20.109" fill="#00000c" opacity=".15" rx="1.323" ry="1.323" style="stroke-width:.262946;fill:#fff"/></g></svg>