<svg xmlns="http://www.w3.org/2000/svg" xmlns:svg="http://www.w3.org/2000/svg" id="svg13" width="16" height="16" version="1.1"><path id="path4" fill="#4d576b" d="m 8,15 c 3.8659,0 6.9999,-3.134 6.9999,-7 C 14.9999,4.134 11.8659,1 8,1 4.134,1 0.9999,4.134 0.9999,8 c 0,3.866 3.134,7 7.0001,7" style="fill:#4d576b;fill-opacity:1;fill-rule:evenodd"/><path id="path929" fill="#4d576b" d="m 8,15 c 3.8659,0 6.9999,-3.134 6.9999,-7 C 14.9999,4.134 11.8659,1 8,1 4.134,1 0.9999,4.134 0.9999,8 c 0,3.866 3.134,7 7.0001,7" style="opacity:.2;fill:#000;fill-opacity:1;fill-rule:evenodd"/><path id="path11" stroke-width="3.78" d="m6.4129 4.9952 4.586 4.5862v-3.586c0-0.41553-0.5845-1-1-1zm-1.414 1.4141v3.586c0 0.41553 0.58446 1 0.99998 1h3.5859z" opacity=".5"/></svg>