<svg xmlns="http://www.w3.org/2000/svg" xmlns:svg="http://www.w3.org/2000/svg" id="svg15" width="16" height="16" version="1.1"><g style="display:inline" id="titlebutton-minimize-backdrop" transform="translate(-253,268.63782)"><rect id="rect1557-60" width="16" height="16" x="253" y="-268.638" ry="0" style="opacity:0;fill:#000;fill-opacity:1;stroke:none;stroke-width:.474321;stroke-linejoin:miter;stroke-miterlimit:4;stroke-dasharray:none;stroke-opacity:1;paint-order:markers stroke fill"/><g id="titlebutton-minimize-backdrop-1-6" transform="translate(254,-267.63782)" style="enable-background:new"><g id="g6-6-2" transform="translate(-4.9999997,-1033.3622)"><path style="fill:#afb6c5;fill-opacity:1;fill-rule:evenodd;stroke:none" id="path2-26-6" d="m 12.000061,1047.3622 c 3.865929,0 6.999939,-3.134 6.999939,-7 0,-3.866 -3.13401,-7 -6.999939,-7 -3.8660427,0 -7.0000616,3.134 -7.0000616,7 0,3.866 3.1340189,7 7.0000616,7"/></g></g></g><path id="path13" stroke-width="3.78" d="m8.0254 3.4141v3.5859c0 0.41552 0.58448 1 1 1h3.5859zm-4.6367 4.5859 4.5859 4.5859v-3.5859c0-0.41552-0.58448-1-1-1z" opacity=".5"/></svg>